# xmcd
# Track frame offsets:
# 150
# 11370
# 22255
# 33873
# 44484
# 54894
# 64805
# 75453
# 87738
# 98919
# 109362
# 120295
# 130953
# 142386
# 153394
# 162699
#
# Disc length: 2312 seconds
# Revision: 0
# Processed by: cddbd v1.5PL3 Copyright (c) Steve Scherf et al.
# Submitted via: VisiTrax 2.9.9.202 - For more info visit www.synapsa.com
#
DISCID=dc090610
DTITLE=Dolly Parton - Country Legends - Dolly Parton
DYEAR=2003
DGENRE=Country
TTITLE0=Dumb Blonde
TTITLE1=The Little Things
TTITLE2=The Company You Keep
TTITLE3=Why, Why, Why
TTITLE4=Put If Off Until Tomorrow
TTITLE5=I'm In No Condition
TTITLE6=Too Lonely Too Long
TTITLE7=As Long As I Live
TTITLE8=What Do You Think About Loving
TTITLE9=I Wasted My Tears
TTITLE10=I Couldn't Wait Forever
TTITLE11=Ping Pong
TTITLE12=I'm Not Worth The Tears
TTITLE13=The Giving And The Taking
TTITLE14=Busy Signal
TTITLE15=I Took Him For Granted
EXTD=
EXTT0=
EXTT1=
EXTT2=
EXTT3=
EXTT4=
EXTT5=
EXTT6=
EXTT7=
EXTT8=
EXTT9=
EXTT10=
EXTT11=
EXTT12=
EXTT13=
EXTT14=
EXTT15=
PLAYORDER=
